<?xml version="1.0" encoding="UTF-8"?>
<svg version="1.1" xmlns="http://www.w3.org/2000/svg" width="512" height="512">
<path d="M0 0 C0.81923761 -0.00782324 1.63847523 -0.01564648 2.48253822 -0.02370679 C3.38223524 -0.01701463 4.28193226 -0.01032246 5.20889282 -0.00342751 C6.64288957 -0.01044746 6.64288957 -0.01044746 8.10585594 -0.01760924 C11.32344632 -0.02961758 14.54061536 -0.02007914 17.75820923 -0.01066017 C20.05917612 -0.01472327 22.36014107 -0.02006367 24.66110229 -0.02659035 C30.9213054 -0.04030079 37.18136068 -0.03494988 43.44156647 -0.02545309 C49.98250233 -0.0178758 56.52342524 -0.02489672 63.06436157 -0.02961159 C74.75458987 -0.03602562 86.44475579 -0.0260821 98.13497329 -0.01083358 C108.73923641 0.00257011 119.34340101 0.00024217 129.94766235 -0.01358986 C142.25539475 -0.02963629 154.56306431 -0.03562479 166.87080574 -0.02675307 C173.3883717 -0.02206772 179.90586976 -0.02147533 186.4234314 -0.03136253 C192.54982025 -0.04000657 198.67602244 -0.0340572 204.80239105 -0.01667976 C207.05548543 -0.0127012 209.30859542 -0.01387222 211.56168365 -0.02046776 C214.62822059 -0.02861923 217.69415265 -0.01843918 220.76065063 -0.00342751 C222.11019616 -0.01346575 222.11019616 -0.01346575 223.48700523 -0.02370679 C224.71586165 -0.01197193 224.71586165 -0.01197193 225.96954346 0 C227.03165008 0.00073059 227.03165008 0.00073059 228.11521339 0.00147593 C230.595671 0.50040118 231.47893135 1.36990478 232.98477173 3.37752342 C233.28086823 6.12088133 233.39459791 8.63734299 233.37295532 11.38142967 C233.38084076 12.60380836 233.38084076 12.60380836 233.3888855 13.85088158 C233.40210074 16.54745656 233.39334216 19.24344232 233.38320923 21.94002342 C233.38522953 23.81185075 233.3881406 25.68367731 233.39190674 27.55550194 C233.39633215 31.47965039 233.38989205 35.40359407 233.37588501 39.32771873 C233.358793 44.36192689 233.36863302 49.39565526 233.3866024 54.42984581 C233.39743437 58.29540699 233.3939966 62.1608541 233.38621902 66.02641869 C233.38421539 67.88280354 233.386682 69.73919869 233.39365768 71.59557152 C233.40126254 74.18853312 233.38968187 76.78071385 233.37295532 79.37361717 C233.37902802 80.14358025 233.38510071 80.91354332 233.39135742 81.70683861 C233.32952457 86.8714278 233.32952457 86.8714278 231.63670349 89.35648155 C229.04912998 90.95583387 226.79480751 90.71287604 223.78555298 90.67049217 C222.57705688 90.6608242 221.36856079 90.65115623 220.1234436 90.6411953 C218.22948853 90.60349022 218.22948853 90.60349022 216.29727173 90.56502342 C214.38591431 90.54472069 214.38591431 90.54472069 212.4359436 90.5240078 C209.28537347 90.48860813 206.13502007 90.43480066 202.98477173 90.37752342 C202.98477173 95.32752342 202.98477173 100.27752342 202.98477173 105.37752342 C204.77914673 105.47033592 204.77914673 105.47033592 206.60977173 105.56502342 C223.17149367 107.46597578 238.42819561 117.05530461 248.95352173 129.75252342 C258.88687011 143.34552647 263.46738372 157.15775617 263.36572266 173.93916893 C263.37040263 175.14560318 263.3750826 176.35203744 263.37990439 177.59503031 C263.38972706 180.90839841 263.38629152 184.22124877 263.37694573 187.53458428 C263.37011315 191.12156567 263.38065717 194.70850424 263.3888855 198.29547691 C263.40218044 205.30838025 263.39936409 212.32118691 263.39064758 219.33409393 C263.38385467 225.03689734 263.38296123 230.73967378 263.38621902 236.44248009 C263.38667872 237.2561211 263.38713842 238.06976211 263.38761205 238.90805891 C263.38857129 240.56128674 263.38954393 242.21451455 263.39052983 243.86774236 C263.3990713 259.34669595 263.38926913 274.82559611 263.37312873 290.30454093 C263.35972667 303.5676647 263.36205512 316.83070967 263.37588501 330.09383202 C263.39196282 345.5198291 263.39824744 360.94577944 263.38904822 376.37178373 C263.38809264 378.0187114 263.38714952 379.66563908 263.38621902 381.31256676 C263.3857562 382.12275089 263.38529337 382.93293502 263.38481652 383.76767018 C263.38223323 389.45937448 263.38658333 395.15104896 263.39365768 400.84274864 C263.40209738 407.78512139 263.39974086 414.72739247 263.38381545 421.66975367 C263.3759658 425.20749606 263.37278416 428.74506932 263.38276291 432.28281021 C263.39344227 436.12726042 263.38063592 439.97143755 263.36572266 443.81587791 C263.37241482 444.92056813 263.37910699 446.02525834 263.38600194 447.16342402 C263.2523236 465.00420459 256.32508732 480.56181846 243.98477173 493.37752342 C227.84788397 508.91582493 210.19759005 512.84690407 188.55508423 512.76570702 C186.72058806 512.76977956 184.88609435 512.77512524 183.05160522 512.78163719 C178.10119279 512.79523544 173.15096934 512.79004327 168.20055389 512.78049994 C163.00118021 512.77286432 157.80182188 512.77995973 152.60244751 512.78465843 C143.87373981 512.79010467 135.14510845 512.78295415 126.41641235 512.7686367 C116.34844659 512.75231241 106.28066314 512.75760171 96.2127018 512.77411592 C87.54311382 512.78776311 78.87358047 512.78963467 70.20398521 512.78179991 C65.03715403 512.77714114 59.87040833 512.77644885 54.70358276 512.78640938 C49.8443073 512.79512396 44.98526517 512.78897565 40.12601471 512.77172661 C38.35078568 512.76778564 36.57553676 512.76885444 34.80031586 512.7755146 C12.81961406 512.8503295 -3.89906212 507.07769254 -20.00350952 491.44783592 C-29.97344405 480.79260656 -37.12594341 465.93989798 -37.14665604 451.1886797 C-37.15049718 450.15852314 -37.15433833 449.12836659 -37.15829587 448.06699318 C-37.15742939 446.94191307 -37.15656291 445.81683297 -37.15567017 444.65765953 C-37.15864129 443.45720625 -37.16161241 442.25675297 -37.16467357 441.01992232 C-37.17184621 437.69090631 -37.17453229 434.36194193 -37.17527103 431.03292191 C-37.17712428 427.44105715 -37.18467308 423.84920351 -37.19140625 420.2573452 C-37.20498023 412.40378178 -37.21101309 404.55022347 -37.21541691 396.69665027 C-37.21818143 391.79000157 -37.22241921 386.88335483 -37.22692108 381.97670746 C-37.2391135 368.38411998 -37.24941224 354.79153406 -37.25279617 341.19894123 C-37.25301574 340.32919026 -37.25323531 339.45943929 -37.25346152 338.56333223 C-37.2536798 337.69152859 -37.25389808 336.81972494 -37.25412297 335.92150301 C-37.25456643 334.1549714 -37.255013 332.38843979 -37.25546265 330.62190819 C-37.25568408 329.74565206 -37.25590551 328.86939594 -37.25613365 327.9665866 C-37.2600791 313.77772866 -37.27752551 299.58892215 -37.30082217 285.40008407 C-37.32456294 270.82270582 -37.3369993 256.24535335 -37.33816409 241.66795546 C-37.33907942 233.48736015 -37.34479578 225.30683184 -37.3629837 217.12625504 C-37.37842165 210.15810727 -37.38348351 203.19004719 -37.3752456 196.22188555 C-37.37135186 192.67000572 -37.37220572 189.11830227 -37.38630295 185.5664444 C-37.40148278 181.70631216 -37.39313741 177.84642506 -37.38272095 173.98627281 C-37.39077735 172.87680776 -37.39883376 171.76734271 -37.40713429 170.6242575 C-37.294908 152.76962265 -30.36444992 137.20247753 -18.01522827 124.37752342 C-7.15245592 113.9176978 7.52539778 105.37752342 22.98477173 105.37752342 C22.98477173 100.42752342 22.98477173 95.47752342 22.98477173 90.37752342 C21.07051392 90.41232811 19.1562561 90.4471328 17.18399048 90.48299217 C14.68009298 90.51112585 12.17618602 90.53842646 9.67227173 90.56502342 C7.77831665 90.6027285 7.77831665 90.6027285 5.84609985 90.6411953 C4.63760376 90.65086327 3.42910767 90.66053123 2.18399048 90.67049217 C1.06854858 90.68620262 -0.04689331 90.70191307 -1.19613647 90.71809959 C-4.01522827 90.37752342 -4.01522827 90.37752342 -5.66716003 89.35648155 C-7.77809246 86.25764221 -7.43197331 82.99495292 -7.40341187 79.37361717 C-7.40866882 78.55869804 -7.41392578 77.74377892 -7.41934204 76.90416527 C-7.43255728 74.20759029 -7.4237987 71.51160452 -7.41366577 68.81502342 C-7.41568607 66.9431961 -7.41859714 65.07136953 -7.42236328 63.19954491 C-7.4267887 59.27539646 -7.42034859 55.35145277 -7.40634155 51.42732811 C-7.38924954 46.39311995 -7.39908956 41.35939158 -7.41705894 36.32520103 C-7.42789091 32.45963986 -7.42445314 28.59419274 -7.41667557 24.72862816 C-7.41467193 22.87224331 -7.41713854 21.01584815 -7.42411423 19.15947533 C-7.43171909 16.56651373 -7.42013841 13.97433299 -7.40341187 11.38142967 C-7.4125209 10.22648506 -7.4125209 10.22648506 -7.42181396 9.04820824 C-7.3594158 3.83640161 -7.3594158 3.83640161 -5.74237061 1.68052232 C-3.64443886 0.09779072 -2.60627893 0.00179277 0 0 Z M7.98477173 15.37752342 C7.98477173 35.17752342 7.98477173 54.97752342 7.98477173 75.37752342 C77.28477173 75.37752342 146.58477173 75.37752342 217.98477173 75.37752342 C217.98477173 55.57752342 217.98477173 35.77752342 217.98477173 15.37752342 C148.68477173 15.37752342 79.38477173 15.37752342 7.98477173 15.37752342 Z M37.98477173 90.37752342 C37.65477173 99.28752342 37.32477173 108.19752342 36.98477173 117.37752342 C34.04532907 120.31696608 30.57152354 120.15469497 26.60977173 120.69002342 C10.72348831 123.12716842 -2.46617987 129.63545076 -12.29647827 142.72908592 C-20.88523295 155.96357609 -22.21107765 169.63657238 -22.07772827 185.00252342 C-22.07321655 186.00670311 -22.06870483 187.0108828 -22.0640564 188.04549217 C-22.05241813 190.48952907 -22.03448913 192.93353471 -22.01522827 195.37752342 C-17.06522827 195.37752342 -12.11522827 195.37752342 -7.01522827 195.37752342 C-6.98944702 193.26732811 -6.96366577 191.1571328 -6.93710327 188.98299217 C-6.89850516 186.90091629 -6.85340334 184.81907343 -6.80770874 182.73714256 C-6.77977586 181.30887356 -6.75842612 179.88045792 -6.74423218 178.45198631 C-6.60585281 165.30133395 -4.82372768 155.29244904 4.61758423 145.54158592 C12.0199318 138.77442329 19.56873663 136.06414371 29.66195679 136.11009789 C30.40338307 136.10556677 31.14480935 136.10103566 31.90870309 136.09636724 C34.37650669 136.0837748 36.84408813 136.08534025 39.31192017 136.08699608 C41.08818849 136.08100756 42.86445422 136.07420126 44.64071655 136.06664085 C49.45495065 136.04900549 54.26911361 136.04428648 59.08337688 136.04300928 C62.09483004 136.0415856 65.10626524 136.03731186 68.11771393 136.03201485 C78.63428389 136.01352191 89.15080323 136.00534321 99.66738892 136.00691795 C109.4529857 136.00811878 119.23836172 135.98702604 129.02390265 135.95543063 C137.4394432 135.92923203 145.8549118 135.91855218 154.27049279 135.91982877 C159.29042087 135.9203374 164.31015271 135.91470931 169.33003998 135.89347267 C174.05467547 135.87403014 178.77892877 135.87400679 183.50357819 135.88850594 C185.23085594 135.89058776 186.95815799 135.88593072 188.68539429 135.87378502 C202.31283079 135.78421763 212.6760182 137.18769858 222.82070923 147.01033592 C229.5683756 154.39135726 232.14841158 161.78372407 232.39883423 171.84236717 C232.41820038 172.52053993 232.43756653 173.19871269 232.45751953 173.89743614 C232.51669172 176.03650908 232.56344692 178.17563771 232.60977173 180.31502342 C232.64800918 181.77663378 232.68706415 183.23822299 232.72695923 184.69978905 C232.82386115 188.25891578 232.90391847 191.81785226 232.98477173 195.37752342 C237.93477173 195.37752342 242.88477173 195.37752342 247.98477173 195.37752342 C248.34242796 173.40153486 248.30231421 153.84489642 232.98477173 136.37752342 C218.57369095 122.3494614 201.3764158 120.24340502 182.14321899 120.20393944 C180.76584163 120.19762202 179.38846628 120.19085493 178.01109314 120.18367577 C175.06303392 120.16909751 172.11498209 120.15733693 169.16690254 120.14772797 C164.5071105 120.13219231 159.84738458 120.1082491 155.18763733 120.08283043 C141.94370701 120.01182973 128.69974128 119.95166426 115.45571899 119.90071678 C108.12760918 119.87245325 100.79956766 119.83710822 93.47152942 119.79406303 C88.83652577 119.7672627 84.20159916 119.74937644 79.56653321 119.73802578 C76.69182183 119.72892552 73.81720497 119.71157843 70.94254875 119.69184685 C68.9677984 119.68076697 66.99300022 119.6796201 65.01821899 119.67871666 C63.85049454 119.66899834 62.68277008 119.65928001 61.47966003 119.6492672 C60.46078485 119.64503526 59.44190966 119.64080332 58.39215946 119.63644314 C55.98477173 119.37752342 55.98477173 119.37752342 53.98477173 117.37752342 C53.71914673 115.28377342 53.71914673 115.28377342 53.73477173 112.87752342 C53.72703735 111.68642967 53.72703735 111.68642967 53.71914673 110.47127342 C53.98477173 108.37752342 53.98477173 108.37752342 55.98477173 106.37752342 C58.29236031 106.11581039 58.29236031 106.11581039 61.23651123 106.09905052 C62.90663773 106.0823053 62.90663773 106.0823053 64.61050415 106.06522179 C65.83761108 106.0630616 67.06471802 106.06090141 68.32901001 106.05867577 C70.26065506 106.04360733 70.26065506 106.04360733 72.23132324 106.02823448 C75.76826935 106.0008686 79.3051755 105.9857657 82.8421998 105.97280645 C86.53648892 105.9572046 90.23069605 105.93040507 93.92492676 105.90477562 C100.92302453 105.85793548 107.92113764 105.8212168 114.91931236 105.78810275 C122.8854004 105.74991825 130.85140622 105.70049854 138.81742501 105.65011859 C155.2064826 105.54672091 171.59558482 105.45788465 187.98477173 105.37752342 C187.98477173 100.42752342 187.98477173 95.47752342 187.98477173 90.37752342 C138.48477173 90.37752342 88.98477173 90.37752342 37.98477173 90.37752342 Z M14.57461548 157.83064842 C5.0482253 168.82904641 7.98477173 180.64295059 7.98477173 195.37752342 C77.28477173 195.37752342 146.58477173 195.37752342 217.98477173 195.37752342 C219.28414055 175.71641903 219.28414055 175.71641903 211.98477173 158.37752342 C204.91502557 151.53583359 198.69970694 150.25724358 189.01507568 150.24381065 C188.33772397 150.2415451 187.66037225 150.23927954 186.96249473 150.23694533 C184.70574262 150.2306441 182.44905116 150.23143219 180.19229126 150.23225975 C178.56893842 150.22926586 176.9455863 150.2258628 175.32223511 150.22208214 C170.92136335 150.21326184 166.52051104 150.21090487 162.11963129 150.21026635 C159.36801992 150.20955478 156.61641346 150.20741845 153.86480331 150.20476913 C144.25944455 150.19552257 134.65409964 150.19143343 125.04873657 150.19222069 C116.10443111 150.19282145 107.16018597 150.18226814 98.21589577 150.16647702 C90.52823705 150.1533896 82.84059801 150.14803729 75.15292823 150.1486761 C70.5651785 150.14893071 65.97748241 150.14609969 61.3897438 150.13549805 C57.07396639 150.12579672 52.75829368 150.12575182 48.44251251 150.13301468 C46.86233492 150.13405796 45.28215073 150.13171292 43.70198441 150.12565422 C27.79891775 149.80958272 27.79891775 149.80958272 14.57461548 157.83064842 Z M-22.01522827 210.37752342 C-22.01522827 260.53752342 -22.01522827 310.69752342 -22.01522827 362.37752342 C67.08477173 362.37752342 156.18477173 362.37752342 247.98477173 362.37752342 C247.98477173 312.21752342 247.98477173 262.05752342 247.98477173 210.37752342 C158.88477173 210.37752342 69.78477173 210.37752342 -22.01522827 210.37752342 Z M-22.01522827 377.37752342 C-22.06070272 385.87145102 -22.09727156 394.36528141 -22.11885262 402.85929871 C-22.12921877 406.80487334 -22.14324413 410.75035922 -22.16610718 414.6958828 C-22.18809488 418.51494639 -22.19985053 422.33392548 -22.20498276 426.15304756 C-22.20863262 427.59843714 -22.21575723 429.04382294 -22.22668839 430.4891758 C-22.36640761 449.75792547 -20.11767573 466.43613597 -7.01522827 481.37752342 C8.05197133 496.0442659 26.06463717 497.53020379 46.03848267 497.52278709 C47.65416542 497.52578352 49.26984745 497.52918716 50.88552856 497.53296471 C55.25350163 497.54175999 59.62145508 497.54414094 63.98943615 497.54478049 C66.72451923 497.54549357 69.4595974 497.54763277 72.19467926 497.55027771 C81.75394505 497.55951656 91.31319694 497.56361446 100.87246704 497.56282616 C109.75481976 497.56222586 118.63711166 497.57277198 127.519449 497.58856982 C135.16903013 497.60168576 142.81859148 497.60700835 150.46818376 497.60637075 C155.02642602 497.60611694 159.58461418 497.60890307 164.14284515 497.6195488 C168.43405472 497.62929822 172.72515921 497.62926253 177.01637268 497.62203217 C178.58155218 497.62099475 180.14673846 497.62329839 181.71190643 497.62939262 C200.7094207 497.69850772 217.20433354 495.33883076 231.98477173 482.37752342 C246.8601067 467.09603596 248.15768397 448.94691727 248.08242798 428.74471092 C248.08055886 427.25684723 248.07913729 425.76898292 248.07814026 424.28111839 C248.07435395 420.39813549 248.06455767 416.51519103 248.05343628 412.63222313 C248.0431378 408.65670351 248.0386247 404.68117758 248.03359985 400.70564842 C248.02293123 392.92958735 248.00536674 385.15356571 247.98477173 377.37752342 C243.03477173 377.37752342 238.08477173 377.37752342 232.98477173 377.37752342 C232.97075317 380.74451439 232.97075317 380.74451439 232.95645142 384.17952538 C232.92254429 391.63154696 232.86691985 399.08329562 232.80086899 406.53509808 C232.76151485 411.04907469 232.72926765 415.56285974 232.71377563 420.07698631 C232.69852899 424.44092561 232.66394346 428.80433786 232.61646271 433.16804123 C232.6017309 434.82518152 232.59373547 436.4823971 232.59288788 438.13960266 C232.5789709 451.71752524 231.13327896 462.11144218 221.35195923 472.21346092 C213.94961165 478.98062356 206.40080682 481.69090314 196.30758667 481.64494896 C195.56616039 481.64948007 194.82473411 481.65401119 194.06084037 481.6586796 C191.59303677 481.67127205 189.12545533 481.66970659 186.65762329 481.66805077 C184.88135496 481.67403929 183.10508924 481.68084558 181.3288269 481.68840599 C176.51459281 481.70604135 171.70042985 481.71076037 166.88616657 481.71203756 C163.87471341 481.71346125 160.86327822 481.71773499 157.85182953 481.723032 C147.33525956 481.74152493 136.81874023 481.74970363 126.30215454 481.74812889 C116.51655776 481.74692806 106.73118174 481.76802081 96.9456408 481.79961622 C88.53010026 481.82581482 80.11463165 481.83649467 71.69905066 481.83521807 C66.67912259 481.83470945 61.65939075 481.84033753 56.63950348 481.86157417 C51.91486798 481.88101671 47.19061468 481.88104006 42.46596527 481.86654091 C40.73868752 481.86445908 39.01138547 481.86911613 37.28414917 481.88126183 C23.65671267 481.97082921 13.29352525 480.56734826 3.14883423 470.74471092 C-3.65014266 463.30756292 -6.3021585 455.73459955 -6.33407593 445.60628319 C-6.34412155 444.86398964 -6.35416718 444.12169609 -6.36451721 443.3569088 C-6.3951633 440.92758959 -6.41233206 438.49837963 -6.42929077 436.06892967 C-6.44801741 434.37498611 -6.46759193 432.68105173 -6.48797607 430.9871273 C-6.53914533 426.54685967 -6.57885209 422.10656185 -6.61611938 417.66615868 C-6.65625475 413.1278146 -6.70730346 408.58959448 -6.75741577 404.05135155 C-6.85399492 395.16015423 -6.93744726 386.26890508 -7.01522827 377.37752342 C-11.96522827 377.37752342 -16.91522827 377.37752342 -22.01522827 377.37752342 Z M7.98477173 377.37752342 C3.20634349 411.5666591 3.20634349 411.5666591 13.98477173 459.37752342 C21.05451789 466.21921325 27.26983652 467.49780326 36.95446777 467.51123619 C37.63181949 467.51350175 38.3091712 467.5157673 39.00704873 467.51810151 C41.26380084 467.52440274 43.52049229 467.52361466 45.7772522 467.52278709 C47.40060503 467.52578099 49.02395716 467.52918405 50.64730835 467.53296471 C55.04818011 467.541785 59.44903242 467.54414198 63.84991217 467.54478049 C66.60152354 467.54549206 69.35312999 467.54762839 72.10474014 467.55027771 C81.71009891 467.55952428 91.31544381 467.56361342 100.92080688 467.56282616 C109.86511234 467.56222539 118.80935749 467.57277871 127.75364769 467.58856982 C135.44130641 467.60165724 143.12894545 467.60700955 150.81661522 467.60637075 C155.40436495 467.60611613 159.99206105 467.60894715 164.57979965 467.6195488 C168.89557706 467.62925012 173.21124978 467.62929502 177.52703094 467.62203217 C179.10720854 467.62098889 180.68739273 467.62333392 182.26755905 467.62939262 C197.05013566 467.86469512 197.05013566 467.86469512 209.98477173 461.37752342 C229.50871482 441.25866794 217.98477173 394.69885262 217.98477173 377.37752342 C148.68477173 377.37752342 79.38477173 377.37752342 7.98477173 377.37752342 Z " fill="#000000" transform="translate(143.01522827148438,-0.37752342224121094)"/>
</svg>
