<?xml version="1.0" encoding="UTF-8"?>
<svg version="1.1" xmlns="http://www.w3.org/2000/svg" width="512" height="512">
<path d="M0 0 C5.20203698 3.46802465 8.98765197 8.25069008 13 13 C14.93423025 15.27363157 16.8728407 17.54349921 18.8125 19.8125 C19.58775024 20.72080566 19.58775024 20.72080566 20.37866211 21.64746094 C23.58384469 25.38958777 26.85153997 29.0605528 30.1875 32.6875 C33.35830742 36.14015696 36.38035031 39.65530966 39.3125 43.3125 C43.38813044 48.36916714 47.7536296 53.08348303 52.20239258 57.80786133 C56.22329242 62.10108601 59.94989767 66.56237209 63.625 71.15625 C66.4646455 74.55635185 69.46389371 77.775851 72.5 81 C77.12294958 85.90960298 81.46601179 90.94478543 85.68359375 96.2109375 C89.35986497 100.63734163 93.30426372 104.80801112 97.2265625 109.015625 C101.53105514 113.63353761 105.64312405 118.40761607 109.73828125 123.2109375 C115.32318933 129.75655431 120.96553961 136.22039507 126.77734375 142.56640625 C130.86049757 147.037065 134.81842379 151.61141889 138.74609375 156.21875 C139.7680638 157.41680775 140.79020431 158.6147201 141.8125 159.8125 C142.32965576 160.41852051 142.84681152 161.02454102 143.37963867 161.64892578 C146.5847653 165.39032262 149.85193729 169.06098478 153.1875 172.6875 C156.35830742 176.14015696 159.38035031 179.65530966 162.3125 183.3125 C166.45081636 188.44666789 170.86915221 193.26412627 175.39575195 198.05395508 C186 209.29703288 186 209.29703288 186 215 C183.15802843 221.92730569 175.95063301 227.19712036 170.37109375 231.9609375 C168.50346877 233.56703345 166.67241611 235.19782298 164.84765625 236.8515625 C163.71133116 237.85981883 162.57461138 238.86763052 161.4375 239.875 C160.90753418 240.36387695 160.37756836 240.85275391 159.83154297 241.35644531 C156.00931505 244.69721613 153.09543718 246.03554956 148 246 C145.70703125 244.671875 145.70703125 244.671875 143.8125 242.75 C141.30946297 240.28264782 138.85874461 238.05373227 136 236 C135.030625 236.73863281 134.06125 237.47726563 133.0625 238.23828125 C125.54136318 243.94027747 117.94896041 249.48027631 110.14233398 254.78466797 C104.27637342 258.78066245 98.52486517 262.92356049 92.78173828 267.09350586 C87.71542529 270.76916209 82.62088767 274.40081546 77.5 278 C71.63502915 282.12377575 65.80566138 286.29314382 60 290.5 C53.49941517 295.21040657 46.9613612 299.86297608 40.39453125 304.48046875 C35.2343328 308.11454566 30.1107106 311.79671401 25 315.5 C18.49941517 320.21040657 11.9613612 324.86297608 5.39453125 329.48046875 C0.2343313 333.11454672 -4.88921666 336.79681272 -10 340.5 C-19.30975489 347.24348241 -28.70052336 353.86834937 -38.10449219 360.47949219 C-46.86878716 366.6433473 -55.59275544 372.85741881 -64.26928711 379.14428711 C-70.0111014 383.29958823 -75.79226836 387.39593504 -81.59228516 391.46948242 C-86.10295357 394.643288 -90.5787738 397.860849 -95.03344727 401.11279297 C-97.32910894 402.77918819 -99.64190779 404.41939491 -101.95703125 406.05859375 C-104.3479744 407.76079683 -106.50262691 409.4488 -108.69921875 411.41015625 C-117.18284796 418.46348764 -127.86715055 416.15573933 -138.14941406 415.30566406 C-142.3449401 414.97261825 -146.54080026 414.7063082 -150.7421875 414.4609375 C-151.49072998 414.41692307 -152.23927246 414.37290863 -153.01049805 414.32756042 C-156.82057411 414.10629979 -160.6310503 413.89595062 -164.44238281 413.69750977 C-165.18157959 413.65877243 -165.92077637 413.6200351 -166.68237305 413.5801239 C-168.13627327 413.50395464 -169.59021176 413.42851193 -171.04418945 413.35383606 C-175.02337865 413.14029577 -178.96944723 412.81698593 -182.9296875 412.37890625 C-189.97460363 411.7394541 -194.68560257 411.6432933 -200.46484375 416.125 C-204.29396256 419.47093285 -207.73860195 423.10261082 -211 427 C-210.67 427.33 -210.34 427.66 -210 428 C-209.42028986 435.07246377 -209.42028986 435.07246377 -211.5625 438.5 C-214.87832303 440.54050648 -217.16691031 440.34224015 -221 440 C-221.62003906 439.73316406 -222.24007812 439.46632813 -222.87890625 439.19140625 C-225.25208478 438.74205319 -225.25208478 438.74205319 -227.62109375 440.9140625 C-228.55050781 441.80867188 -229.47992188 442.70328125 -230.4375 443.625 C-231.82775391 444.94371094 -231.82775391 444.94371094 -233.24609375 446.2890625 C-235.84416793 448.84659935 -238.4291519 451.41515454 -241 454 C-232.90655832 454.42685469 -226.1812899 453.24989778 -218.4375 451 C-198.25449758 445.59810171 -181.408185 446.91993927 -162.8046875 457.12109375 C-159.77683993 459.1494986 -157.40594724 461.26458972 -155 464 C-154.29039787 467.78454468 -154.72198824 469.46714413 -156.5 472.875 C-159.29441779 475.25025513 -161.08214416 475.78126472 -164.74609375 475.55859375 C-168.3620517 474.66243779 -171.14045715 472.60244593 -174.24609375 470.6015625 C-187.16540498 463.08820419 -200.55206312 463.85567285 -214.5 467.4375 C-216.17806903 467.89089874 -217.85520513 468.34776878 -219.53125 468.80859375 C-231.17943878 471.99088086 -243.4026538 472.77465075 -254.2578125 466.74609375 C-259.82609455 462.97568874 -263.09566223 458.53006233 -264.421875 451.88671875 C-264.77291209 449.14553204 -264.9692413 446.39528205 -265.18359375 443.640625 C-266.3289202 439.93612412 -268.72073477 437.64280879 -271.375 434.9375 C-277.49094818 428.55875717 -277.49094818 428.55875717 -280 425 C-289.97090511 427.6239224 -298.1507331 433.57057149 -304 442 C-308.73500993 451.22297587 -309.86214197 459.78677965 -308 470 C-303.92814889 480.9358287 -298.57302879 488.02445704 -288 493 C-271.06374228 500.05677405 -250.77773946 494.16046017 -234.25 488.375 C-213.92641252 481.37800219 -194.9159743 483.98815019 -174.6875 490 C-149.62843902 497.19003342 -149.62843902 497.19003342 -125 491 C-126.19238281 490.82984375 -127.38476562 490.6596875 -128.61328125 490.484375 C-130.17982761 490.24048156 -131.7462266 489.99564029 -133.3125 489.75 C-134.49102539 489.58564453 -134.49102539 489.58564453 -135.69335938 489.41796875 C-141.49835027 488.47928937 -141.49835027 488.47928937 -144.015625 486.07421875 C-145.41040044 483.13522764 -145.45965673 481.21759709 -145 478 C-143.63671875 475.3203125 -143.63671875 475.3203125 -141 473 C-137.44461991 472.4125623 -133.96303665 472.62428294 -130.375 472.8125 C-123.73515322 473.08803106 -117.76058918 473.02668651 -111.26977539 471.47460938 C-107.60465995 470.7082348 -103.69705732 470.29687867 -100 471 C-97.60413325 472.89672785 -97.00155344 473.99570521 -95.9375 476.9375 C-95.16966048 484.50391861 -101.08389138 492.24321585 -105.625 497.8125 C-115.38633947 508.03778146 -127.58227859 511.93778415 -141.36450195 512.39990234 C-156.64744332 512.6128761 -170.5488093 509.14645964 -185.06591797 504.72705078 C-205.16780787 498.67031567 -221.34387961 502.14595199 -240.80126953 508.2487793 C-257.71624761 513.42901756 -280.66542335 516.08406996 -297 508 C-310.17713028 500.98608612 -319.33160475 491.15578779 -323.875 476.6875 C-327.74110094 461.81605649 -326.14201442 447.40551559 -318.78515625 433.8125 C-313.11732897 424.88288153 -305.64521129 418.89508109 -297 413 C-295.66101712 412.0075774 -294.32550672 411.01035128 -293 410 C-293.495 409.484375 -293.99 408.96875 -294.5 408.4375 C-296.57431425 405.06673934 -296.40055677 402.90960101 -296 399 C-294.09375 396.375 -294.09375 396.375 -291.5 394 C-290.59121094 393.15566406 -289.68242187 392.31132812 -288.74609375 391.44140625 C-287.83988281 390.63574219 -286.93367188 389.83007812 -286 389 C-285.22785156 388.28714844 -284.45570313 387.57429688 -283.66015625 386.83984375 C-278.51136364 382.17045455 -278.51136364 382.17045455 -275 381 C-275.25136719 380.41992188 -275.50273437 379.83984375 -275.76171875 379.2421875 C-278.27596224 372.81336238 -278.27596224 372.81336238 -276.8125 368.5 C-275 366 -275 366 -273 365 C-268.07143256 364.63492093 -265.76968154 364.84475994 -262 368 C-260.89591797 366.98679687 -260.89591797 366.98679687 -259.76953125 365.953125 C-258.78392827 365.05200228 -257.79824701 364.15096517 -256.8125 363.25 C-255.84957031 362.36828125 -254.88664062 361.4865625 -253.89453125 360.578125 C-251 358 -251 358 -248.38226318 356.27339172 C-245.19767592 353.23434282 -245.24939363 351.39709717 -244.98925781 347.04760742 C-244.94136612 346.35601028 -244.89347443 345.66441315 -244.84413147 344.95185852 C-244.69160433 342.67054045 -244.57237438 340.38874764 -244.453125 338.10546875 C-244.35269816 336.51356134 -244.25010604 334.92178918 -244.14544678 333.33015442 C-243.87539786 329.14013109 -243.63314696 324.94895878 -243.39715576 320.75689697 C-243.10635999 315.67948946 -242.78361451 310.60403566 -242.46516037 305.52830219 C-242.21770076 301.57530143 -241.97505544 297.62220842 -241.74737549 293.66801453 C-241.70436813 292.93681396 -241.66136078 292.2056134 -241.61705017 291.45225525 C-241.50159998 289.48436911 -241.38890544 287.51632185 -241.27642822 285.54826355 C-240.43023021 274.68637131 -240.43023021 274.68637131 -237.15625 271.38671875 C-236.28299072 270.48252197 -236.28299072 270.48252197 -235.39208984 269.56005859 C-234.7677002 268.94211426 -234.14331055 268.32416992 -233.5 267.6875 C-232.21027275 266.36132323 -230.92120961 265.0345003 -229.6328125 263.70703125 C-229.00536133 263.06975098 -228.37791016 262.4324707 -227.73144531 261.77587891 C-225.54529374 259.53362474 -223.45297563 257.21751496 -221.375 254.875 C-217.95435404 251.04743705 -214.48753125 247.26644659 -211 243.5 C-207.47298019 239.69020002 -203.96489692 235.8666241 -200.5 232 C-196.06629286 227.05409564 -191.5605658 222.17713346 -187.05078125 217.30078125 C-180.84683239 210.5921578 -174.66313207 203.8653631 -168.5625 197.0625 C-164.56482627 192.60713196 -160.50799115 188.20916481 -156.44165039 183.81665039 C-153.43603927 180.56634649 -150.45448076 177.29702925 -147.5 174 C-143.06629286 169.05409564 -138.5605658 164.17713346 -134.05078125 159.30078125 C-127.84683239 152.5921578 -121.66313207 145.8653631 -115.5625 139.0625 C-111.10602289 134.09761909 -106.58051938 129.19865048 -102.05078125 124.30078125 C-95.84683239 117.5921578 -89.66313207 110.8653631 -83.5625 104.0625 C-79.10602289 99.09761909 -74.58051938 94.19865048 -70.05078125 89.30078125 C-63.11270302 81.79830898 -56.21955647 74.25755577 -49.3984375 66.6484375 C-47.58155523 64.64217336 -45.75438802 62.64863888 -43.9140625 60.6640625 C-43.37966553 60.087771 -42.84526855 59.51147949 -42.29467773 58.91772461 C-41.25149565 57.79467563 -40.20682215 56.67300948 -39.16040039 55.55297852 C-36.29573213 52.47004982 -33.58718412 49.32462378 -31 46 C-32.7266837 42.20129585 -35.11513835 39.40552202 -37.85546875 36.29296875 C-39.63363545 32.73056651 -39.14893341 30.78023196 -38 27 C-35.92564169 24.33529003 -33.49133413 22.19778975 -30.9375 20 C-30.25228271 19.38769531 -29.56706543 18.77539062 -28.86108398 18.14453125 C-26.9197483 16.41500698 -24.9612185 14.70688794 -23 13 C-22.17757813 12.2575 -21.35515625 11.515 -20.5078125 10.75 C-18.70215338 9.12563195 -16.86566643 7.55472202 -15 6 C-14.33742188 5.42378906 -13.67484375 4.84757813 -12.9921875 4.25390625 C-8.67871726 0.70308379 -5.79689993 -1.18084999 0 0 Z M-8.16015625 21.84375 C-9.1027832 22.72353516 -9.1027832 22.72353516 -10.06445312 23.62109375 C-10.72380859 24.24113281 -11.38316406 24.86117188 -12.0625 25.5 C-12.72572266 26.12003906 -13.38894531 26.74007813 -14.07226562 27.37890625 C-15.71692326 28.91707527 -17.35938318 30.45752356 -19 32 C-16.95953274 35.63177507 -14.71381615 38.58268448 -11.875 41.625 C4.03581974 58.99409454 4.03581974 58.99409454 3.9375 64.5 C3 68 3 68 0.8125 70 C-2.70412326 71.25035494 -4.41427121 70.9995219 -8 70 C-10.51953125 67.78515625 -10.51953125 67.78515625 -12.8125 65.0625 C-13.58207031 64.16660156 -14.35164062 63.27070312 -15.14453125 62.34765625 C-17 60 -17 60 -18 58 C-20.06937667 57.76536345 -20.06937667 57.76536345 -21.3046875 59.29296875 C-21.82289063 59.91816406 -22.34109375 60.54335938 -22.875 61.1875 C-26.08206128 64.96012188 -29.38241377 68.6215482 -32.75 72.25 C-33.79564202 73.37884224 -34.84121436 74.50774904 -35.88671875 75.63671875 C-36.40669434 76.19794434 -36.92666992 76.75916992 -37.46240234 77.33740234 C-39.83708053 79.90513153 -42.20052051 82.4830927 -44.5625 85.0625 C-45.01061035 85.55186035 -45.4587207 86.0412207 -45.92041016 86.54541016 C-46.82441138 87.53268749 -47.72838278 88.51999214 -48.63232422 89.50732422 C-50.02579152 91.02814876 -51.42087751 92.54747324 -52.81640625 94.06640625 C-57.04523476 98.67073948 -61.26403086 103.28276595 -65.4375 107.9375 C-69.89397711 112.90238091 -74.41948062 117.80134952 -78.94921875 122.69921875 C-85.15316761 129.4078422 -91.33686793 136.1346369 -97.4375 142.9375 C-101.89397711 147.90238091 -106.41948062 152.80134952 -110.94921875 157.69921875 C-117.15316761 164.4078422 -123.33686793 171.1346369 -129.4375 177.9375 C-133.43517373 182.39286804 -137.49200885 186.79083519 -141.55834961 191.18334961 C-144.56396073 194.43365351 -147.54551924 197.70297075 -150.5 201 C-154.93370714 205.94590436 -159.4394342 210.82286654 -163.94921875 215.69921875 C-170.15316761 222.4078422 -176.33686793 229.1346369 -182.4375 235.9375 C-186.89397711 240.90238091 -191.41948062 245.80134952 -195.94921875 250.69921875 C-199.77275932 254.83379408 -203.58368298 258.97970021 -207.3828125 263.13671875 C-209.12242326 265.03990485 -210.86719709 266.93838491 -212.6171875 268.83203125 C-213.82761719 270.15267578 -213.82761719 270.15267578 -215.0625 271.5 C-215.77535156 272.2734375 -216.48820312 273.046875 -217.22265625 273.84375 C-218.86446836 275.8355748 -219.96755844 277.64624722 -221 280 C-220.45472656 280.59425781 -219.90945312 281.18851562 -219.34765625 281.80078125 C-215.353596 286.1908338 -211.46056003 290.61696308 -207.75 295.25 C-203.6511278 300.32342922 -199.26760012 305.06069181 -194.80004883 309.80541992 C-190.76098652 314.11827696 -187.01074735 318.59811381 -183.31640625 323.2109375 C-179.64013503 327.63734163 -175.69573628 331.80801112 -171.7734375 336.015625 C-167.46894486 340.63353761 -163.35687595 345.40761607 -159.26171875 350.2109375 C-153.67681067 356.75655431 -148.03446039 363.22039507 -142.22265625 369.56640625 C-138.06024035 374.12384932 -134.02374314 378.78352555 -130.04296875 383.5 C-129.51171387 384.12672607 -128.98045898 384.75345215 -128.43310547 385.39916992 C-127.37244142 386.65141821 -126.31532533 387.90668245 -125.26220703 389.1652832 C-122.71286106 392.17204372 -120.31956096 394.80544538 -117 397 C-116.06542969 396.28457031 -115.13085938 395.56914062 -114.16796875 394.83203125 C-106.74138656 389.18537372 -99.23111912 383.72325992 -91.5 378.5 C-85.54721938 374.47743048 -79.71308956 370.35649126 -74 366 C-67.4824328 361.03161659 -60.78565799 356.38171958 -54.00048828 351.78735352 C-48.42745525 348.00423691 -42.96670929 344.09947134 -37.55566406 340.08911133 C-32.97834135 336.70142719 -28.34750967 333.39788617 -23.6875 330.125 C-17.75930818 325.96039455 -11.86609341 321.75163615 -6 317.5 C0.50052661 312.78951402 7.03863995 308.13702311 13.60546875 303.51953125 C18.7656672 299.88545434 23.8892894 296.20328599 29 292.5 C35.50058483 287.78959343 42.0386388 283.13702392 48.60546875 278.51953125 C53.7656672 274.88545434 58.8892894 271.20328599 64 267.5 C70.50058483 262.78959343 77.0386388 258.13702392 83.60546875 253.51953125 C89.51723781 249.3561597 95.38323667 245.13159723 101.22998047 240.87744141 C105.09192882 238.07374636 108.97674205 235.3142598 112.9140625 232.6171875 C113.70425781 232.07255859 114.49445313 231.52792969 115.30859375 230.96679688 C116.82359779 229.92571062 118.34425262 228.89278803 119.87109375 227.86914062 C121.63433962 226.65374839 123.32566872 225.33522621 125 224 C125 219.68220348 122.4222652 217.64009899 119.6875 214.5625 C119.14569092 213.94141357 118.60388184 213.32032715 118.0456543 212.68041992 C114.08342789 208.16031203 110.02404848 203.73248136 105.93408203 199.328125 C103.0152522 196.1664973 100.25719577 192.91632999 97.5625 189.5625 C93.19859541 184.14091657 88.5157847 179.07157883 83.7734375 173.984375 C79.46894486 169.36646239 75.35687595 164.59238393 71.26171875 159.7890625 C65.67681067 153.24344569 60.03446039 146.77960493 54.22265625 140.43359375 C50.13950243 135.962935 46.18157621 131.38858111 42.25390625 126.78125 C41.23192214 125.58320425 40.2097821 124.38529149 39.1875 123.1875 C38.67106934 122.58220459 38.15463867 121.97690918 37.62255859 121.35327148 C34.39706718 117.58751277 31.10815196 113.89791546 27.75 110.25 C26.16277006 108.5035334 24.57931828 106.75362431 23 105 C22.20851563 104.1234375 21.41703125 103.246875 20.6015625 102.34375 C15.17938544 96.02738936 15.17938544 96.02738936 14.3125 91.0625 C15 88 15 88 16 86.0625 C19.34620066 84.2848309 22.39904466 84.09809096 26 85 C28.83640647 86.90561233 30.84912035 89.36551786 33 92 C33.65355469 92.79921875 34.30710937 93.5984375 34.98046875 94.421875 C36.46307958 96.24745773 37.94062593 98.07716093 39.4140625 99.91015625 C42.29283726 103.41391324 45.39105425 106.70106811 48.5 110 C53.10597892 114.89079627 57.42615114 119.90768893 61.625 125.15625 C64.4646455 128.55635185 67.46389371 131.775851 70.5 135 C75.12294958 139.90960298 79.46601179 144.94478543 83.68359375 150.2109375 C87.35986497 154.63734163 91.30426372 158.80801112 95.2265625 163.015625 C99.53105514 167.63353761 103.64312405 172.40761607 107.73828125 177.2109375 C113.32318933 183.75655431 118.96553961 190.22039507 124.77734375 196.56640625 C130.04050252 202.32905636 135.10160504 208.26876867 140.1875 214.1875 C140.69909668 214.78216064 141.21069336 215.37682129 141.73779297 215.98950195 C144.55687181 219.27750509 147.31653541 222.599237 150 226 C153.67793249 224.43474036 156.21212508 222.14603892 159.125 219.4375 C163.80555556 215.09722222 163.80555556 215.09722222 166 214 C164.43767979 210.32043709 162.16415918 207.83484207 159.4375 204.9375 C156.0431595 201.28859927 152.80023354 197.58418125 149.6875 193.6875 C145.61251555 188.63163433 141.24768006 183.91812777 136.79980469 179.19433594 C132.76084255 174.88154586 129.01067423 170.40179489 125.31640625 165.7890625 C121.64013503 161.36265837 117.69573628 157.19198888 113.7734375 152.984375 C109.46894486 148.36646239 105.35687595 143.59238393 101.26171875 138.7890625 C95.67681067 132.24344569 90.03446039 125.77960493 84.22265625 119.43359375 C80.13950243 114.962935 76.18157621 110.38858111 72.25390625 105.78125 C66.67243614 99.23748858 61.03199262 92.77691033 55.22265625 86.43359375 C51.13950243 81.962935 47.18157621 77.38858111 43.25390625 72.78125 C37.67243614 66.23748858 32.03199262 59.77691033 26.22265625 53.43359375 C21.5998779 48.3720983 17.14363382 43.17054193 12.69213867 37.95874023 C4.54272415 28.30186811 4.54272415 28.30186811 -4 19 C-5.80394875 19 -6.90191794 20.66486005 -8.16015625 21.84375 Z M-226 299 C-226.43374231 304.86705691 -226.86068723 310.73455768 -227.28173828 316.60253906 C-227.42544551 318.59257876 -227.57090775 320.58249263 -227.71826172 322.57226562 C-228.19691968 329.04554474 -228.62920735 335.51962949 -229 342 C-229.04553009 342.74199646 -229.09106018 343.48399292 -229.13796997 344.24847412 C-229.66967581 352.18947455 -229.66967581 352.18947455 -227.05859375 359.4921875 C-226.19363281 360.27851563 -225.32867187 361.06484375 -224.4375 361.875 C-223.05498047 363.20724609 -223.05498047 363.20724609 -221.64453125 364.56640625 C-220.77183594 365.36949219 -219.89914063 366.17257812 -219 367 C-217.85324205 368.25123481 -216.72572403 369.52058321 -215.625 370.8125 C-215.08230469 371.43640625 -214.53960937 372.0603125 -213.98046875 372.703125 C-210.2992549 376.97246177 -206.63011167 381.25212607 -202.96484375 385.53515625 C-202.49441147 386.06743332 -202.02397919 386.59971039 -201.53929138 387.14811707 C-200 389 -200 389 -198.84922791 390.82250977 C-196.70254665 393.97611821 -195.04985283 395.71653564 -191.30143738 396.72862244 C-187.91226229 397.09914452 -184.57244318 397.25565266 -181.1640625 397.33984375 C-179.92957367 397.39652725 -178.69508484 397.45321075 -177.42318726 397.51161194 C-173.49102929 397.68496367 -169.55894168 397.81181573 -165.625 397.9375 C-162.95409862 398.04330711 -160.28378622 398.15965892 -157.61328125 398.27539062 C-151.07653289 398.55205276 -144.53922978 398.7905927 -138 399 C-138.93155439 397.73931558 -139.86575478 396.48058617 -140.80102539 395.22265625 C-141.32096573 394.52148682 -141.84090607 393.82031738 -142.37660217 393.09790039 C-144.86843861 389.87772568 -147.6318999 386.94598425 -150.4375 384 C-151.59191775 382.77155827 -152.74557153 381.54239815 -153.8984375 380.3125 C-154.71199707 379.44625 -154.71199707 379.44625 -155.54199219 378.5625 C-159.40594537 374.42162586 -163.06066771 370.1017452 -166.734375 365.79296875 C-167.76016092 364.59092754 -168.7862105 363.38911129 -169.8125 362.1875 C-170.32844727 361.58341309 -170.84439453 360.97932617 -171.37597656 360.35693359 C-175.42423646 355.63396371 -179.57596646 351.02115152 -183.77734375 346.43359375 C-187.86049757 341.962935 -191.81842379 337.38858111 -195.74609375 332.78125 C-201.31672243 326.25019917 -206.94210112 319.79835608 -212.74609375 313.47265625 C-215.35710075 310.6082413 -217.90325731 307.69294438 -220.4296875 304.75390625 C-222.21520242 302.7596371 -224.10181879 300.88672877 -226 299 Z M-244.625 374.25 C-245.62789063 375.03890625 -246.63078125 375.8278125 -247.6640625 376.640625 C-250.46904558 378.92039694 -250.46904558 378.92039694 -250 383 C-248.897111 384.73769612 -248.897111 384.73769612 -247.25 386.375 C-243.76316158 390.15889159 -240.39571254 394.01877961 -237.0625 397.9375 C-232.43820897 403.3489044 -227.76042227 408.70753054 -223 414 C-219.33584124 411.93687686 -216.29451872 409.64127824 -213.1875 406.8125 C-212.39730469 406.09707031 -211.60710937 405.38164062 -210.79296875 404.64453125 C-210.20128906 404.10183594 -209.60960937 403.55914062 -209 403 C-209.804375 402.071875 -210.60875 401.14375 -211.4375 400.1875 C-214.06418019 397.13222397 -216.60081552 394.01528779 -219.125 390.875 C-223.24957094 385.80022927 -227.61456271 380.99530721 -232.10205078 376.23974609 C-235.90199671 372.19600658 -235.90199671 372.19600658 -237 370 C-240.29727336 370 -242.11265944 372.23753082 -244.625 374.25 Z M-268.875 396.3125 C-269.75929688 397.11300781 -270.64359375 397.91351563 -271.5546875 398.73828125 C-273.41355486 400.45758508 -275.23082658 402.18981925 -277 404 C-276.23816406 404.81082031 -275.47632813 405.62164062 -274.69140625 406.45703125 C-268.94087808 412.61163037 -263.39103795 418.83949388 -258.11328125 425.41015625 C-254.86871569 429.38639834 -251.44547901 433.1977684 -248 437 C-247.56429687 436.62488281 -247.12859375 436.24976563 -246.6796875 435.86328125 C-242.81392401 432.54140223 -238.92342352 429.25357073 -235 426 C-236.50006391 422.55220914 -238.50409262 420.17639467 -241.0625 417.4375 C-244.34931208 413.85571761 -247.5049332 410.2169923 -250.5625 406.4375 C-254.55980783 401.50584781 -258.58194106 396.5645762 -263 392 C-265.15917663 392 -267.41409252 394.98497973 -268.875 396.3125 Z " fill="#000000" transform="translate(326,0)"/>
<path d="M0 0 C3.49883415 2.84606658 6.78463961 5.83831841 10 9 C10.69996094 9.68707031 11.39992188 10.37414062 12.12109375 11.08203125 C28.38868008 28.17409564 33.68723443 50.05356469 33.31640625 72.9921875 C33.02432194 80.77214041 31.52432801 87.63460874 29 95 C28.649375 96.05058594 28.29875 97.10117187 27.9375 98.18359375 C19.86097084 119.74904835 2.57350828 134.88180439 -17.875 144.3125 C-37.36083161 152.18838128 -60.44738246 152.879641 -80.15771484 145.15429688 C-102.21852941 135.64993496 -118.39032952 119.79987131 -127.97265625 97.69921875 C-135.53274641 77.8360161 -135.74806791 54.37539674 -127.234375 34.78125 C-117.40365109 13.56628065 -101.64571331 -2.6423245 -79.74511719 -11.10107422 C-53.14947202 -20.63471645 -22.78262475 -17.03471484 0 0 Z M-96 18 C-96.598125 18.50660156 -97.19625 19.01320313 -97.8125 19.53515625 C-108.685566 29.41314255 -116.128456 45.39554386 -117.13891602 60.0090332 C-118.01266866 79.40548318 -114.03319665 96.62690935 -100.625 111.375 C-87.64661182 125.04747855 -71.30062648 133.8035208 -52.19335938 134.42236328 C-33.85660365 134.54208515 -17.13749967 128.87652611 -3.88354492 115.98706055 C-2.57620874 114.67065037 -1.28728964 113.33601985 0 112 C0.59039062 111.44054687 1.18078125 110.88109375 1.7890625 110.3046875 C13.41892671 98.42605614 17.53731111 80.56967478 17.41796875 64.56884766 C16.86506415 46.1951365 9.21940746 30.66767927 -4 18 C-17.87680362 5.24339964 -34.52163167 -0.43840715 -53.2265625 -0.203125 C-69.20450709 0.6569714 -84.13719295 7.29875948 -96 18 Z " fill="#000000" transform="translate(318,172)"/>
<path d="M0 0 C2.26916408 1.72266383 3.89213151 3.16982246 5.75 5.25 C6.21792969 5.74113281 6.68585938 6.23226562 7.16796875 6.73828125 C9.63586727 9.35998648 11.9077498 12.07084972 14 15 C17.90478455 13.38071731 20.56172556 10.80673954 23.625 7.9375 C29.85245752 2.1190846 29.85245752 2.1190846 34.3125 1.65625 C38.85656343 2.07984913 39.96203906 3.18222687 43 6.5 C44.27617187 7.87091797 44.27617187 7.87091797 45.578125 9.26953125 C46.37734375 10.17058594 47.1765625 11.07164062 48 12 C48.98226562 13.08861328 48.98226562 13.08861328 49.984375 14.19921875 C51.13728572 15.49751865 52.27488146 16.8096279 53.39453125 18.13671875 C54.98243292 20.02477311 54.98243292 20.02477311 56.76171875 21.76953125 C59.64142069 24.74320948 61.4025971 26.89894034 61.6875 31.125 C60.83927662 35.9058954 59.69414375 36.92154687 56 40 C54.59345057 41.38503433 53.19820064 42.781607 51.8125 44.1875 C49.875 46.125 47.9375 48.0625 46 50 C46.60328125 50.66386719 47.2065625 51.32773438 47.828125 52.01171875 C48.62734375 52.89472656 49.4265625 53.77773437 50.25 54.6875 C51.43335938 55.99267578 51.43335938 55.99267578 52.640625 57.32421875 C60.07320187 65.75354848 60.07320187 65.75354848 59.83984375 70.69140625 C57.83431398 76.20428111 52.29204614 80.20689714 48 84 C47.24074219 84.68707031 46.48148437 85.37414062 45.69921875 86.08203125 C44.40237367 87.23786017 43.0907066 88.37737173 41.76171875 89.49609375 C39.99777048 90.96323907 39.99777048 90.96323907 38.45703125 92.53515625 C35.75368643 95.13703504 33.6305524 96.36959264 29.9375 96.625 C25.10785974 95.85839043 24.0822396 94.71449388 21 91 C19.80238296 89.78104458 18.59346557 88.57311541 17.375 87.375 C15.25 85.25 13.125 83.125 11 81 C9.75283203 82.15628906 9.75283203 82.15628906 8.48046875 83.3359375 C7.38291233 84.3490665 6.28525056 85.36208137 5.1875 86.375 C4.64029297 86.88289063 4.09308594 87.39078125 3.52929688 87.9140625 C-4.0353281 94.88268672 -4.0353281 94.88268672 -9.62109375 94.76953125 C-15.18807181 92.96871897 -19.227991 87.26817759 -23 83 C-23.68707031 82.24074219 -24.37414062 81.48148437 -25.08203125 80.69921875 C-26.23786017 79.40237367 -27.37737173 78.0907066 -28.49609375 76.76171875 C-29.96323907 74.99777048 -29.96323907 74.99777048 -31.53515625 73.45703125 C-34.08691553 70.80576046 -35.0408769 68.83649241 -35.9375 65.25 C-35.57173937 58.89795707 -29.39692248 54.9347642 -25 51 C-23.32411271 49.34260526 -21.65469825 47.67854975 -20 46 C-20.77085937 45.16855469 -21.54171875 44.33710938 -22.3359375 43.48046875 C-23.3490665 42.38291233 -24.36208137 41.28525056 -25.375 40.1875 C-25.88289062 39.64029297 -26.39078125 39.09308594 -26.9140625 38.52929688 C-33.72308771 31.13792082 -33.72308771 31.13792082 -33.5703125 25.1796875 C-32.3812268 20.6350997 -28.45504989 17.93857336 -25 15 C-24.35289062 14.41347656 -23.70578125 13.82695312 -23.0390625 13.22265625 C-21.05871591 11.44034432 -19.03354336 9.72126248 -17 8 C-16.18144531 7.26910156 -15.36289063 6.53820312 -14.51953125 5.78515625 C-13.24142578 4.68494141 -13.24142578 4.68494141 -11.9375 3.5625 C-11.16277344 2.88316406 -10.38804687 2.20382813 -9.58984375 1.50390625 C-6.07176537 -0.53902011 -4.00953977 -0.62194181 0 0 Z M-6.84765625 20.75 C-7.94400391 21.86375 -7.94400391 21.86375 -9.0625 23 C-10.16271484 24.11375 -10.16271484 24.11375 -11.28515625 25.25 C-12.13400391 26.11625 -12.13400391 26.11625 -13 27 C-11.44712323 30.64588458 -9.19954367 33.12516129 -6.5 36 C0.04323156 42.96811673 0.04323156 42.96811673 -0.0625 47.9375 C-1.25959159 51.8479992 -2.95332128 53.28448201 -6 56 C-7.21497603 57.20165392 -8.4230497 58.41031718 -9.625 59.625 C-11.75 61.75 -13.875 63.875 -16 66 C-13.36 68.97 -10.72 71.94 -8 75 C-3.73919615 71.88048289 0.21799725 68.80945109 4 65.125 C6.57499999 62.88630605 8.50899821 61.42092497 11.9375 61 C17.81013179 61.53177374 21.41226271 66.80521211 25 71 C25.83144531 71.95712891 25.83144531 71.95712891 26.6796875 72.93359375 C27.81218761 74.26764049 28.9111195 75.63011808 30 77 C31.29608947 76.06862408 32.58671632 75.1296434 33.875 74.1875 C34.59429687 73.66542969 35.31359375 73.14335937 36.0546875 72.60546875 C38.23028655 70.96727223 38.23028655 70.96727223 40 68 C39.15695312 67.14277344 38.31390625 66.28554688 37.4453125 65.40234375 C36.33790204 64.24800912 35.2311667 63.09302654 34.125 61.9375 C33.29162109 61.09541992 33.29162109 61.09541992 32.44140625 60.23632812 C28.72983631 56.32352849 26.9272031 53.34924863 26 48 C28.6225244 41.0066016 36.31578218 35.57510215 42 31 C41.06409496 29.8944811 40.12620142 28.79064547 39.1875 27.6875 C38.40439453 26.76517578 38.40439453 26.76517578 37.60546875 25.82421875 C36.12779563 24.14520818 34.58852905 22.57301228 33 21 C32.10796875 21.84304687 31.2159375 22.68609375 30.296875 23.5546875 C29.11481017 24.6617006 27.93250591 25.76845807 26.75 26.875 C26.16347656 27.43058594 25.57695312 27.98617187 24.97265625 28.55859375 C24.39902344 29.09355469 23.82539063 29.62851563 23.234375 30.1796875 C22.71069336 30.67194824 22.18701172 31.16420898 21.64746094 31.67138672 C18.76995303 33.99198512 16.79173889 35.01684551 13.0625 34.9375 C9.25625261 33.77232223 7.51038679 31.92332248 5 29 C3.41930966 27.22680706 1.83577226 25.45614962 0.25 23.6875 C-0.52859375 22.80449219 -1.3071875 21.92148438 -2.109375 21.01171875 C-2.73328125 20.34785156 -3.3571875 19.68398437 -4 19 C-5.30313847 18.88539008 -5.30313847 18.88539008 -6.84765625 20.75 Z " fill="#000000" transform="translate(255,191)"/>
</svg>
