<?xml version="1.0" encoding="UTF-8"?>
<svg version="1.1" xmlns="http://www.w3.org/2000/svg" width="512" height="512">
<path d="M0 0 C10.83731988 6.4544531 19.56193861 16.65339927 28.44458008 25.51757812 C29.78750029 26.85421912 31.1306045 28.19067528 32.47387695 29.52696228 C36.84678742 33.87902654 41.21453904 38.23624946 45.58203125 42.59375 C47.09316061 44.10082637 48.60432197 45.60787065 50.11551476 47.11488342 C57.20925755 54.18962782 64.30062338 61.26674411 71.38905412 68.34681082 C79.55052375 76.4984879 87.72022697 84.64179644 95.89693338 92.77818918 C102.23541242 99.08649301 108.56618128 105.40246829 114.89124602 111.72422171 C118.66184448 115.49247409 122.43565031 119.25737401 126.2176609 123.01417542 C129.7715592 126.54475939 133.31577306 130.08478739 136.85289764 133.63217354 C138.14863719 134.9284075 139.4477761 136.22125411 140.7506237 137.51034355 C157.81004921 154.39970494 157.81004921 154.39970494 158.1875 167.625 C158.10475941 175.65083717 156.28955508 181.07144548 151.015625 187.125 C145.16260212 192.74390196 138.92372156 195.09693413 130.875 195.5 C113.50290753 194.80189427 101.54978648 177.93389185 90.1875 166.5 C88.78799577 165.09546858 87.38825787 163.69116994 85.98828125 162.28710938 C82.59365715 158.88158122 79.20220094 155.47292818 75.8125 152.0625 C68.87146567 157.74271791 62.63576094 164.11251756 56.31640625 170.4609375 C55.11593713 171.66327468 53.91524482 172.86538905 52.71434021 174.06729126 C49.57383452 177.21159163 46.43634519 180.35888479 43.29949951 183.50683594 C40.09017382 186.72644173 36.87796995 189.94317321 33.66601562 193.16015625 C27.37870898 199.45814635 21.09458894 205.75930565 14.8125 212.0625 C16.26997937 215.43374263 18.11556074 217.58523276 20.73974609 220.13745117 C21.5475351 220.92895065 22.3553241 221.72045013 23.18759155 222.53593445 C24.06154572 223.38388077 24.93549988 224.23182709 25.8359375 225.10546875 C27.68012252 226.91947973 29.52385841 228.73394739 31.3671875 230.54882812 C34.27291947 233.401193 37.18391251 236.24801538 40.10351562 239.08618164 C42.92367311 241.82896109 45.72336804 244.5921825 48.5234375 247.35546875 C49.3933432 248.19329391 50.2632489 249.03111908 51.15951538 249.89433289 C57.14029467 255.8249129 61.05000422 261.22985433 62.37890625 269.65234375 C62.36837861 278.67452824 61.11173777 285.31355117 54.9453125 292.125 C47.53558245 299.04459226 41.55355377 300.38150427 31.60546875 300.65625 C21.47423078 299.07030956 15.02854523 292.96098528 8.1875 285.75 C7.37410156 284.91404297 6.56070312 284.07808594 5.72265625 283.21679688 C3.74056942 281.17641338 1.77122548 279.12527676 -0.1875 277.0625 C-3.72672218 278.57012866 -5.9796912 280.61882072 -8.67440796 283.34254456 C-9.56840302 284.24101608 -10.46239807 285.13948761 -11.38348389 286.06518555 C-12.36689442 287.06364868 -13.35022928 288.06218635 -14.33349609 289.06079102 C-15.37492747 290.11097479 -16.41684044 291.16068118 -17.459198 292.20994568 C-19.70340151 294.47063741 -21.94460367 296.734249 -24.18366623 299.00003242 C-27.73475369 302.59256706 -31.2951362 306.17579124 -34.85733032 309.75730896 C-44.98608613 319.94356257 -55.10500126 330.13951828 -65.20849609 340.35083008 C-70.78871684 345.99043766 -76.37810251 351.62079922 -81.97738326 357.24148506 C-85.50957652 360.78819843 -89.03047411 364.34562302 -92.54309344 367.91171753 C-94.74919844 370.14588909 -96.96603337 372.3691812 -99.18581009 374.58976173 C-100.20030365 375.6087615 -101.21059915 376.63196434 -102.21591187 377.66002274 C-118.5373596 394.33509716 -138.85779551 404.8967498 -162.421875 405.53637695 C-173.64643532 405.62616672 -183.50705838 404.52165012 -194.1875 401.0625 C-196.51951885 400.39124968 -198.85269634 399.72399886 -201.1875 399.0625 C-201.74393692 399.77660034 -202.30037384 400.49070068 -202.87367249 401.22644043 C-246.12409729 456.07699209 -246.12409729 456.07699209 -272.73222351 459.53710938 C-280.86465902 460.32337945 -288.91355209 460.27261138 -297.0625 459.8125 C-297.85660908 459.76980988 -298.65071815 459.72711975 -299.46889114 459.68313599 C-326.50537277 458.12541374 -326.50537277 458.12541374 -331.02053833 454.65264893 C-332.1875 453.0625 -332.1875 453.0625 -332.8125 450.375 C-331.33825652 442.56150953 -322.34773108 436.08262751 -316.86547852 430.62695312 C-316.06466354 429.82599213 -315.26384857 429.02503113 -314.43876648 428.19979858 C-311.81701228 425.5787356 -309.19174438 422.96122278 -306.56640625 420.34375 C-304.73773187 418.51694261 -302.90927956 416.68991288 -301.08103943 414.8626709 C-296.77653814 410.56158488 -292.46981966 406.26273089 -288.16199392 401.96497488 C-283.25303775 397.06724193 -278.3469609 392.16662901 -273.44110978 387.26578617 C-263.35974733 377.19484308 -253.2748197 367.12747597 -243.1875 357.0625 C-243.39305008 356.37851135 -243.59860016 355.69452271 -243.81037903 354.98980713 C-244.08025131 354.09114929 -244.3501236 353.19249146 -244.62817383 352.26660156 C-244.89559891 351.37636292 -245.16302399 350.48612427 -245.43855286 349.56890869 C-252.29350587 326.62828603 -250.50751011 303.66415752 -240.1875 282.0625 C-230.36594842 264.46555342 -214.02294681 250.75882651 -199.87925744 236.6528635 C-197.10414 233.88406701 -194.33192106 231.11237128 -191.55937195 228.34100342 C-186.32727008 223.11198941 -181.09262822 217.88552605 -175.85703105 212.66001201 C-169.88874295 206.70296484 -163.92334973 200.74302224 -157.95817816 194.78285456 C-145.70446632 182.53954936 -133.44718832 170.29982065 -121.1875 158.0625 C-122.68798249 154.9081467 -124.19178948 152.85906309 -126.7421875 150.453125 C-127.43957031 149.78023437 -128.13695312 149.10734375 -128.85546875 148.4140625 C-130.31492871 147.02434664 -131.77841632 145.63884708 -133.24609375 144.2578125 C-139.96867381 137.74569996 -144.26383868 131.05796652 -144.5 121.4375 C-144.40866808 113.02481583 -141.54724427 106.75712412 -135.90234375 100.56640625 C-130.74540282 96.0438043 -124.39478586 93.91770004 -117.625 93.75 C-116.16900391 93.69392578 -116.16900391 93.69392578 -114.68359375 93.63671875 C-104.17343031 94.91672748 -97.95887872 100.45596107 -90.8046875 107.859375 C-89.85623722 108.81904294 -88.90643336 109.7773748 -87.95535278 110.73443604 C-85.47919104 113.23329419 -83.02159946 115.74963877 -80.56768799 118.27032471 C-78.05107572 120.84877823 -75.51697281 123.40991958 -72.984375 125.97265625 C-68.0350224 130.98598135 -63.10511853 136.01802653 -58.1875 141.0625 C-54.13147286 139.44626737 -51.41794472 136.56097324 -48.40917969 133.51123047 C-47.55974289 132.66223175 -47.55974289 132.66223175 -46.69314575 131.79608154 C-44.82710762 129.9286528 -42.96824904 128.05424538 -41.109375 126.1796875 C-39.81515446 124.88173589 -38.52049095 123.58422584 -37.22540283 122.28713989 C-33.82124354 118.87535164 -30.42313366 115.45759948 -27.02624512 112.03857422 C-23.55758593 108.5494408 -20.08324417 105.06597613 -16.609375 101.58203125 C-9.79650698 94.74772632 -2.9900158 87.90710797 3.8125 81.0625 C-0.35218508 76.07340899 -4.7095047 71.46446179 -9.37890625 66.94921875 C-10.74994917 65.60542982 -12.1203731 64.2610091 -13.49023438 62.91601562 C-15.61933197 60.83007376 -17.75183756 58.74822434 -19.89526367 56.67700195 C-38.33029195 38.8346718 -38.33029195 38.8346718 -39.5 25.5 C-39.39737814 18.63716305 -36.70383322 10.42714114 -31.90625 5.41015625 C-22.45530003 -2.0002477 -11.30251947 -5.05871764 0 0 Z M-23.4375 15.25 C-25.91719041 19.23521673 -27.76786649 23.21946482 -26.79364139 27.99189103 C-24.86840959 33.26787277 -22.27400791 36.68858961 -18.28642273 40.59176636 C-17.68781065 41.19747282 -17.08919858 41.80317929 -16.47244674 42.42724049 C-14.47598647 44.4412155 -12.4622536 46.43694043 -10.44799805 48.43310547 C-9.00798776 49.87825692 -7.56904984 51.3244776 -6.13110352 52.77168274 C-2.2313821 56.68989819 1.68386839 60.59224297 5.602669 64.49136496 C9.70360939 68.57590618 13.79192593 72.67304985 17.88212585 76.76834106 C24.7507718 83.64150574 31.62953708 90.50441485 38.5144043 97.36132812 C46.47422901 105.28908308 54.41787519 113.23277115 62.35305244 121.18519104 C69.98922972 128.83722917 77.6366551 136.47792922 85.2892971 144.11349869 C88.54524234 147.36257126 91.79719677 150.61556255 95.04601479 153.87176132 C98.87083429 157.70423931 102.70539745 161.5266941 106.54772186 165.34161949 C107.95644271 166.7434517 109.36177634 168.14869722 110.76345634 169.5575695 C112.67670088 171.47949783 114.60181952 173.38868724 116.5304718 175.2951355 C117.08291779 175.85582226 117.63536379 176.41650902 118.20455056 176.99418628 C122.77386271 181.46682157 126.38416752 183.0625 132.75 183.0625 C137.51154551 182.30394285 140.70829677 179.64491832 143.8125 176.0625 C146.10920475 172.23974557 146.53645854 168.43738927 145.8125 164.0625 C143.66305049 158.95493044 140.81247332 155.63493833 136.94265747 151.81170654 C136.34742338 151.21179248 135.75218929 150.61187842 135.1389178 149.99378514 C133.14932173 147.99225554 131.14921374 146.00158225 129.14892578 144.01074219 C127.71756765 142.57531769 126.28684824 141.13925603 124.85671997 139.7026062 C120.97526127 135.80747723 117.08438019 131.9218901 113.19132853 128.03835201 C109.11857328 123.9731933 105.05314411 119.90071873 100.98654175 115.82940674 C94.15738729 108.99479536 87.32193368 102.1665318 80.48291016 95.34179688 C72.57415382 87.44937339 64.67627187 79.54619161 56.78393948 71.63734698 C50.0080593 64.84785801 43.22635665 58.06422648 36.43974292 51.28546643 C32.38606428 47.23646677 28.33444443 43.1854629 24.28805923 39.12917328 C20.48471129 35.31716663 16.67411334 31.51255988 12.85776901 27.71356583 C11.45755168 26.31731887 10.05988771 24.91850595 8.66496277 23.51697159 C6.76225796 21.60608356 4.85057696 19.70465377 2.93630981 17.80535889 C2.38484193 17.24719884 1.83337404 16.68903879 1.26519501 16.1139648 C-2.84079691 12.0701431 -5.90283092 10.27019719 -11.625 9.75 C-16.71983162 10.19691505 -19.780271 11.6943607 -23.4375 15.25 Z M8.69252014 93.93363953 C8.12931564 94.50403458 7.56611115 95.07442963 6.98583984 95.66210938 C6.39057999 96.25707718 5.79532013 96.85204498 5.18202209 97.46504211 C3.20771903 99.44074301 1.2406017 101.42344303 -0.7265625 103.40625 C-2.09090357 104.77431958 -3.4556857 106.14194944 -4.82089233 107.50915527 C-8.41906089 111.11497301 -12.01118417 114.72675583 -15.60211182 118.33978271 C-19.26498661 122.02308829 -22.93350473 125.70076345 -26.6015625 129.37890625 C-33.80243241 136.60124873 -40.99693309 143.82990082 -48.1875 151.0625 C-44.68941226 155.21951684 -41.13365486 159.24050579 -37.28369141 163.07983398 C-36.36319 164.00025986 -35.4426886 164.92068573 -34.49429321 165.8690033 C-33.50927076 166.84892152 -32.52419259 167.82878374 -31.5390625 168.80859375 C-30.51608694 169.82970048 -29.49333472 170.851031 -28.47079468 171.87257385 C-25.79996639 174.53961353 -23.12614718 177.20363436 -20.45166016 179.86700439 C-17.71463264 182.5937385 -14.98049099 185.32336305 -12.24609375 188.05273438 C-6.89602452 193.39213089 -1.54278727 198.72833652 3.8125 204.0625 C7.90870634 202.43891304 10.64697899 199.49569604 13.68261719 196.41943359 C14.25866196 195.84368088 14.83470673 195.26792816 15.4282074 194.67472839 C17.32671037 192.77483463 19.21803522 190.86796009 21.109375 188.9609375 C22.42601582 187.64056566 23.74309957 186.32063536 25.06060791 185.00112915 C28.52395037 181.53015724 31.98124418 178.0532207 35.43731689 174.57501221 C38.9662998 171.02555615 42.5009642 167.48176799 46.03515625 163.9375 C52.96651308 156.98470537 59.89149377 150.02559691 66.8125 143.0625 C61.63157356 136.79725649 55.97745843 131.06377292 50.234375 125.31640625 C49.21633852 124.29515112 48.19837508 123.27382317 47.18048096 122.25242615 C45.06088683 120.12688237 42.93927505 118.00337649 40.81640625 115.88110352 C38.09201632 113.15681603 35.3746189 110.42566394 32.65885544 107.69278049 C30.56567048 105.58851343 28.46799337 103.48877011 26.36899567 101.39030266 C25.36422405 100.38434914 24.36107783 99.37676946 23.35958099 98.36755562 C21.96678126 96.96501492 20.56705808 95.56935969 19.16699219 94.17407227 C17.97502228 92.97996483 17.97502228 92.97996483 16.75897217 91.76173401 C13.04476878 88.51930352 11.73476507 90.90760376 8.69252014 93.93363953 Z M-129 111.6875 C-131.82377418 115.36114797 -132.67585572 119.48416516 -132.1875 124.0625 C-130.01143986 129.34694818 -126.92637083 132.74945059 -122.9380188 136.69293213 C-122.30194919 137.33368171 -121.66587957 137.9744313 -121.01053512 138.63459754 C-118.88275155 140.77432279 -116.74443489 142.90319336 -114.60595703 145.03222656 C-113.07607787 146.56617173 -111.54683745 148.10075418 -110.01818848 149.63592529 C-105.86814675 153.79964165 -101.70867349 157.95381477 -97.5470376 162.10593891 C-93.19401138 166.45137077 -88.84830844 170.80411634 -84.50143433 175.15570068 C-77.20149631 182.4610963 -69.89525602 189.76014413 -62.58544922 197.05566406 C-54.13137857 205.49340216 -45.68817802 213.94190176 -37.25053132 222.39606118 C-30.00756333 229.65263655 -22.75877349 236.90335736 -15.50507247 244.14920402 C-11.17193726 248.47765941 -6.84086106 252.80812275 -2.51501846 257.14386749 C1.55097701 261.21851959 5.62422332 265.28578057 9.70321655 269.34741974 C11.20018797 270.84041965 12.69460353 272.3359872 14.18628311 273.83427429 C16.22035657 275.87652649 18.26341433 277.90934285 20.30905151 279.94000244 C21.19461757 280.83560674 21.19461757 280.83560674 22.09807384 281.74930406 C26.18773952 285.7809578 29.34584614 287.78842735 35.1875 288.4375 C40.23187374 287.91566823 43.79204527 286.409793 47.140625 282.51953125 C49.96992491 278.16599582 50.69324373 274.15578849 49.8125 269.0625 C47.13298845 263.61486063 43.85698759 259.67645948 39.56338501 255.43243408 C38.93941719 254.80378629 38.31544938 254.17513851 37.67257345 253.52744079 C35.59167231 251.43462741 33.50027784 249.352638 31.40869141 247.27050781 C29.90984417 245.76759326 28.41163541 244.26404173 26.91401672 242.75990295 C22.85279899 238.68502618 18.78216984 234.61967513 14.70936251 230.55638599 C10.44622622 226.30085212 6.19042245 222.03799542 1.93344116 217.77630615 C-5.21509035 210.6223194 -12.36991819 203.47467548 -19.52832031 196.33056641 C-27.80346044 188.0717585 -36.06772926 179.80219025 -44.32644594 171.52696157 C-51.41997856 164.419815 -58.51934086 157.31853151 -65.62360823 150.22211528 C-69.86565591 145.98474378 -74.10565265 141.7453735 -78.34040451 137.50070953 C-82.32105142 133.51139646 -86.30896605 129.52949422 -90.30260658 125.55319023 C-91.76690508 124.09285812 -93.22865733 122.62996772 -94.68766212 121.16434669 C-96.67972242 119.16408746 -98.68079602 117.17329998 -100.68441772 115.18463135 C-101.25952729 114.60282962 -101.83463685 114.02102789 -102.42717397 113.42159581 C-106.67935076 109.23074538 -110.56887744 106.3430667 -116.6875 105.6875 C-122.09389533 106.26675664 -125.04762048 107.99861245 -129 111.6875 Z M-115.47032166 170.21160889 C-116.39436295 171.13138519 -117.31840424 172.0511615 -118.27044678 172.99880981 C-119.30266641 174.03137902 -120.33483004 175.06400422 -121.36694336 176.09667969 C-122.44737474 177.17412142 -123.52801207 178.25135667 -124.60884094 179.32839966 C-127.55343599 182.26412887 -130.49474755 185.20312702 -133.43523097 188.1429739 C-135.88722403 190.59401966 -138.34057993 193.04369917 -140.79387289 195.49344373 C-146.58173023 201.27314601 -152.36672029 207.05570778 -158.15014648 212.83984375 C-164.12072979 218.81102753 -170.09686237 224.77661682 -176.07564062 230.73959422 C-181.20278532 235.85366982 -186.32607376 240.97158689 -191.44636828 246.09252095 C-194.50694749 249.15335543 -197.56906732 252.21260917 -200.63505363 255.26802826 C-203.51960918 258.14291393 -206.39933944 261.02254633 -209.27541924 263.90591049 C-210.33228031 264.96381892 -211.39085415 266.02001945 -212.45125198 267.07438278 C-213.89801723 268.5134465 -215.33803633 269.95928303 -216.7776947 271.40545654 C-217.58573012 272.2129472 -218.39376554 273.02043785 -219.22628689 273.85239792 C-221.01810802 275.87161122 -222.14053544 277.59255819 -223.1875 280.0625 C-197.18793065 280.34312431 -171.18858904 280.55457959 -145.18780899 280.68424606 C-133.11443635 280.74605973 -121.04200599 280.830295 -108.96923828 280.96777344 C-98.44354762 281.08757717 -87.91853948 281.16484455 -77.39218593 281.19156194 C-71.8208112 281.2071746 -66.2513886 281.24372342 -60.68064117 281.33126068 C-55.43019928 281.41309152 -50.18250136 281.43776662 -44.93148232 281.41979218 C-43.01097729 281.42307712 -41.09037476 281.44673239 -39.17042351 281.4929657 C-26.82418394 281.82121704 -26.82418394 281.82121704 -16.55802321 275.67430234 C-14.25601821 273.246269 -12.19248438 270.74190845 -10.1875 268.0625 C-11.65558995 264.67452544 -13.53803689 262.46275368 -16.14173889 259.86102295 C-16.96763016 259.03093719 -17.79352142 258.20085144 -18.6444397 257.34561157 C-19.55205048 256.4436203 -20.45966125 255.54162903 -21.39477539 254.61230469 C-22.35937531 253.64663153 -23.32354203 252.6805255 -24.28730774 251.71401978 C-26.90244316 249.09404123 -29.5237788 246.48034827 -32.14640737 243.86787319 C-34.88787204 241.13519241 -37.62406301 238.39724057 -40.36094666 235.65997314 C-44.95508299 231.06677296 -49.5530744 226.47746091 -54.15356445 221.890625 C-59.47946006 216.58047774 -64.80008789 211.26509884 -70.11774832 205.94670558 C-75.22828589 200.83555876 -80.34166946 195.72726975 -85.45666313 190.62058258 C-87.63646306 188.44432154 -89.81540406 186.26720576 -91.99370003 184.08943939 C-94.55465876 181.52948154 -97.11813951 178.97207632 -99.68363762 176.41666794 C-101.07944537 175.0251972 -102.47279506 173.63126213 -103.86608887 172.23727417 C-104.68916031 171.41846771 -105.51223175 170.59966125 -106.36024475 169.75604248 C-107.07941102 169.03855206 -107.79857729 168.32106163 -108.53953648 167.58182907 C-111.73258489 164.6380192 -112.78618883 167.53304548 -115.47032166 170.21160889 Z M-231.1875 292.0625 C-238.58414849 314.25244548 -239.93589488 333.13991304 -230 354.375 C-219.99243944 373.13117427 -204.50897365 384.77429281 -184.53515625 391.1171875 C-166.06950915 396.33152425 -146.49564705 393.25801264 -129.76457214 384.21810913 C-116.44295786 376.47921607 -105.61991462 363.77490083 -94.85546875 352.9609375 C-93.12563548 351.22990974 -91.39542975 349.49925411 -89.66487122 347.76895142 C-86.06733236 344.16985968 -82.4731449 340.56746713 -78.8815918 336.96240234 C-74.26753095 332.33120564 -69.64676631 327.70676733 -65.02375317 323.0845089 C-61.46429989 319.52478474 -57.90744992 315.9624693 -54.35149574 312.39925003 C-52.64675416 310.69131986 -50.94140057 308.98400034 -49.23543358 307.27729416 C-46.86820658 304.90791395 -44.50429164 302.53528138 -42.14135742 300.16162109 C-41.4324234 299.45314026 -40.72348938 298.74465942 -39.99307251 298.01470947 C-39.35555557 297.37292755 -38.71803864 296.73114563 -38.061203 296.06991577 C-37.50288882 295.50992575 -36.94457464 294.94993572 -36.36934185 294.3729763 C-35.07588002 293.2328445 -35.07588002 293.2328445 -35.1875 292.0625 C-99.8675 292.0625 -164.5475 292.0625 -231.1875 292.0625 Z M-236.1875 368.0625 C-245.96931265 377.82098507 -255.74825268 387.58234061 -265.52385712 397.34704494 C-270.0625987 401.8805564 -274.60227054 406.41312827 -279.14404297 410.94360352 C-283.52281813 415.31155437 -287.8991827 419.68190684 -292.27384949 424.05397224 C-293.94762104 425.72588872 -295.62227589 427.39692139 -297.29780579 429.06707573 C-299.63509045 431.39715604 -301.96928248 433.73029129 -304.30273438 436.06420898 C-305.35469246 437.11077415 -305.35469246 437.11077415 -306.42790222 438.17848206 C-307.37449455 439.12713638 -307.37449455 439.12713638 -308.34020996 440.09495544 C-308.89328575 440.64710944 -309.44636154 441.19926344 -310.0161972 441.76814938 C-311.29933063 442.89513701 -311.29933063 442.89513701 -311.1875 444.0625 C-296.11572956 447.62691254 -276.46021335 451.28265908 -262.37146759 442.99411011 C-252.17777514 436.12939779 -243.60200326 426.99648125 -235.25 418.0625 C-234.66842636 417.44069351 -234.08685272 416.81888702 -233.48765564 416.17823792 C-226.17437715 408.32078468 -219.0904717 400.28235354 -212.1875 392.0625 C-214.66904839 389.56007126 -217.16939836 387.19500409 -219.875 384.9375 C-224.01132298 381.35888349 -227.60353247 377.40422582 -231.20703125 373.296875 C-232.81628396 371.48130784 -234.46372296 369.76640024 -236.1875 368.0625 Z " fill="#000000" transform="translate(343.1875,28.9375)"/>
</svg>
